<svg xmlns="http://www.w3.org/2000/svg" viewBox="0 0 1000 700">
  <!-- Maze A -->
  <g transform="translate(10,10)">
    <rect x="0" y="0" width="320" height="200" fill="none" stroke="green" stroke-width="2"/>
    <path d="M0,0 h320 v200 h-320 v-200 M32,0 v168 M64,32 h224 M96,0 v72 M128,72 v128 M160,32 v136 M192,0 v168 M224,32 h96 M256,72 v96 M288,0 v168" fill="none" stroke="green" stroke-width="2"/>
    <circle cx="304" cy="16" r="8" fill="orange"/> <!-- Possible Jura spawn point -->
    <rect x="16" y="184" width="12" height="12" fill="blue" /> <!-- Player spawn point -->
    <text x="4" y="196" fill="green" font-size="16">A</text>
  </g>
  
  <!-- Maze B -->
  <g transform="translate(340,10)">
    <rect x="0" y="0" width="320" height="200" fill="none" stroke="green" stroke-width="2"/>
    <path d="M0,0 h320 v200 h-320 v-200 M32,32 h256 M64,0 v168 M96,32 v136 M128,0 v72 M160,72 h160 M192,32 v136 M224,0 v72 M256,72 v96 M288,32 v136" fill="none" stroke="green" stroke-width="2"/>
    <circle cx="16" cy="184" r="8" fill="orange"/> <!-- Possible Jura spawn point -->
    <rect x="304" y="8" width="12" height="12" fill="blue" /> <!-- Player spawn point -->
    <text x="308" y="196" fill="green" font-size="16">B</text>
  </g>
  
  <!-- Maze C -->
  <g transform="translate(670,10)">
    <rect x="0" y="0" width="320" height="200" fill="none" stroke="green" stroke-width="2"/>
    <path d="M0,0 h320 v200 h-320 v-200 M32,32 h256 M64,72 v96 M96,32 v136 M128,0 v168 M160,32 h128 M192,72 v96 M224,32 v136 M256,0 v72 M288,72 v96" fill="none" stroke="green" stroke-width="2"/>
    <circle cx="144" cy="56" r="8" fill="orange"/> <!-- Possible Jura spawn point -->
    <rect x="16" y="8" width="12" height="12" fill="blue" /> <!-- Player spawn point -->
    <text x="4" y="196" fill="green" font-size="16">C</text>
  </g>
  
  <!-- Maze D -->
  <g transform="translate(10,220)">
    <rect x="0" y="0" width="320" height="200" fill="none" stroke="green" stroke-width="2"/>
    <path d="M0,0 h320 v200 h-320 v-200 M32,32 h256 M64,0 v168 M96,72 h192 M128,32 v136 M160,0 v72 M192,72 v96 M224,32 v136 M256,0 v168 M288,32 v136" fill="none" stroke="green" stroke-width="2"/>
    <circle cx="304" cy="184" r="8" fill="orange"/> <!-- Possible Jura spawn point -->
    <rect x="16" y="8" width="12" height="12" fill="blue" /> <!-- Player spawn point -->
    <text x="308" y="196" fill="green" font-size="16">D</text>
  </g>
  
  <!-- Maze E -->
  <g transform="translate(340,220)">
    <rect x="0" y="0" width="320" height="200" fill="none" stroke="green" stroke-width="2"/>
    <path d="M0,0 h320 v200 h-320 v-200 M32,32 h256 M64,72 v96 M96,32 v136 M128,0 v168 M160,32 h128 M192,0 v168 M224,32 v136 M256,72 h64 M288,32 v136" fill="none" stroke="green" stroke-width="2"/>
    <circle cx="16" cy="16" r="8" fill="orange"/> <!-- Possible Jura spawn point -->
    <rect x="304" y="184" width="12" height="12" fill="blue" /> <!-- Player spawn point -->
    <text x="4" y="196" fill="green" font-size="16">E</text>
  </g>
  
  <!-- Maze F -->
  <g transform="translate(670,220)">
    <rect x="0" y="0" width="320" height="200" fill="none" stroke="green" stroke-width="2"/>
    <path d="M0,0 h320 v200 h-320 v-200 M32,32 h256 M64,0 v168 M96,32 v136 M128,72 h160 M160,32 v136 M192,0 v72 M224,72 v96 M256,32 v136 M288,0 v168" fill="none" stroke="green" stroke-width="2"/>
    <circle cx="176" cy="184" r="8" fill="orange"/> <!-- Possible Jura spawn point -->
    <rect x="304" y="8" width="12" height="12" fill="blue" /> <!-- Player spawn point -->
    <text x="308" y="196" fill="green" font-size="16">F</text>
  </g>
  
  <!-- Connecting lines -->
  <path d="M330,110 h10 M660,110 h10 M170,210 v10 M500,210 v10 M830,210 v10" stroke="blue" stroke-width="2" stroke-dasharray="5,5"/>
  
  <!-- Legend -->
  <g transform="translate(10,430)">
    <text x="0" y="20" fill="black" font-size="16">Legend:</text>
    <rect x="0" y="30" width="20" height="20" fill="none" stroke="green" stroke-width="2"/>
    <text x="30" y="45" fill="black" font-size="14">Maze walls</text>
    <line x1="0" y1="70" x2="20" y2="70" stroke="blue" stroke-width="2" stroke-dasharray="5,5"/>
    <text x="30" y="75" fill="black" font-size="14">Teleport connections</text>
    <circle cx="10" cy="95" r="8" fill="orange"/>
    <text x="30" y="100" fill="black" font-size="14">Possible Jura spawn point</text>
    <rect x="4" y="114" width="12" height="12" fill="blue"/>
    <text x="30" y="125" fill="black" font-size="14">Possible player spawn point</text>
  </g>
</svg>
